Coordinates
version=1
nRows=15
nColumns=34
inDegrees=yes

Units are S.I. units (second, meters, Newtons, ...)
If the header above contains a line with 'inDegrees', this indicates whether rotational values are in degrees (yes) or radians (no).

endheader
time	pelvis_tilt	pelvis_list	pelvis_rotation	pelvis_tx	pelvis_ty	pelvis_tz	hip_flexion_r	hip_adduction_r	hip_rotation_r	knee_angle_r	ankle_angle_r	subtalar_angle_r	mtp_angle_r	hip_flexion_l	hip_adduction_l	hip_rotation_l	knee_angle_l	ankle_angle_l	subtalar_angle_l	mtp_angle_l	lumbar_extension	lumbar_bending	lumbar_rotation	arm_flex_r	arm_add_r	arm_rot_r	elbow_flex_r	pro_sup_r	arm_flex_l	arm_add_l	arm_rot_l	elbow_flex_l	pro_sup_l
      9.03333330	      8.15322504	     -8.62264255	    -36.93860959	      4.25249331	      1.01433425	      1.33384442	    -17.09655326	     -5.57947540	    -11.40200041	     17.67207474	     21.71762830	      0.44066064	      0.00000000	    -12.85344503	      5.77994440	      3.44694792	     15.78340253	     18.49828906	      7.21151199	      0.00000000	     -1.60767226	      3.70367166	      2.02706973	      4.35259143	    -23.04062230	     27.11676608	     91.15837624	    119.74817918	      8.02684366	    -14.50119627	     17.42985199	     99.76804041	    119.74817918
      9.05000000	      8.74800787	     -8.35817478	    -36.97254150	      4.25270350	      1.01415527	      1.33281330	    -16.82995343	     -6.34577710	    -11.04562673	     18.85621195	     22.08975590	     -0.47107207	      0.00000000	    -12.61741936	      6.38808465	      3.75281144	     17.02778030	     20.04537953	      6.58469892	      0.00000000	     -2.21027985	      3.09087688	      1.96363446	      4.71597122	    -22.59838258	     27.11153399	     90.33695407	    119.74817918	      8.81845502	    -14.40111126	     17.07820364	     99.18202378	    119.74817918
      9.06666670	      9.09475584	     -7.55953191	    -37.09235836	      4.25367533	      1.01318747	      1.33220499	    -16.05650505	     -7.37529150	    -10.45454614	     20.03399402	     22.32014147	     -1.94131656	      0.00000000	    -11.93912963	      7.39074734	      3.80753685	     17.98148946	     21.57011271	      5.37646458	      0.00000000	     -2.04852115	      2.13079648	      1.62187393	      5.12626336	    -21.94088846	     27.39621766	     89.83133880	    119.74817918	      9.13783618	    -14.82200053	     17.34292820	     99.12583115	    119.74817918
      9.08333330	      9.57487037	     -7.25485339	    -37.53942329	      4.25456919	      1.01294492	      1.33163240	    -15.98752400	     -8.06075568	     -9.97737368	     20.32702390	     21.70350149	     -3.98944851	      0.00000000	    -12.27261972	      8.38377652	      5.05502723	     17.94486754	     22.33462199	      3.18831232	      0.00000000	     -2.38667261	      1.52109701	      1.35347390	      5.97148365	    -21.45919761	     28.01267387	     88.97169183	    119.74817918	      9.03610934	    -15.08935480	     17.44009475	     99.57016500	    119.74817918
      9.10000000	     10.10518925	     -7.29364744	    -38.21374753	      4.25493453	      1.01280229	      1.33159308	    -16.17943315	     -8.51406039	     -9.23487532	     20.48626367	     21.42831920	     -5.85135607	      0.00000000	    -12.91633019	      9.09006716	      5.68022928	     17.84416690	     23.33118532	      1.49208430	      0.00000000	     -2.95672776	      1.19248738	      1.61380253	      6.51107880	    -20.88040799	     27.82997372	     88.82480395	    119.74817918	      9.08374131	    -15.24179119	     17.61003822	     99.46740481	    119.74817918
      9.11666670	     10.21749728	     -7.16717649	    -38.88604870	      4.25739981	      1.01266548	      1.33206195	    -16.36906884	     -9.00952985	     -9.59194694	     19.97439197	     20.94109687	     -6.10682763	      0.00000000	    -13.14309726	      9.54170844	      5.11068332	     17.74566464	     24.66099235	      0.53826043	      0.00000000	     -2.74435026	      1.08331630	      1.70237509	      6.83070387	    -20.56455491	     27.49030340	     88.97446004	    119.74817918	      8.44263151	    -15.20605441	     17.59073263	     99.47970257	    119.74817918
      9.13333330	     10.21622605	     -6.99385610	    -39.80016246	      4.26036820	      1.01258417	      1.33349261	    -16.59993419	     -9.41295955	     -9.65786305	     19.04903935	     19.92671526	     -7.10178819	      0.00000000	    -13.65117596	     10.06896559	      4.77774410	     16.85583612	     25.19371809	     -0.38342514	      0.00000000	     -2.29301575	      1.11080107	      2.03388677	      6.81441402	    -20.47409373	     27.02490344	     89.75812640	    119.74817918	      7.25838575	    -14.81158401	     17.02801986	     99.93512272	    119.74817918
      9.15000000	     10.54813618	     -6.88621208	    -40.20420144	      4.26369057	      1.01300526	      1.33458667	    -17.35290409	     -9.73196380	     -9.67900203	     17.94701116	     18.58628867	     -9.09674182	      0.00000000	    -14.76736496	     10.65310525	      4.89962710	     15.46868245	     25.16094018	     -1.46544459	      0.00000000	     -2.07147479	      0.89192638	      1.94378531	      6.87766218	    -20.39806954	     26.68134256	     90.31956722	    119.74817918	      6.44741388	    -14.32228673	     16.56252067	     99.99127052	    119.74817918
      9.16666670	     10.62556960	     -6.51063466	    -40.50281572	      4.26750752	      1.01291067	      1.33525973	    -17.73171646	    -10.26167926	    -10.57886129	     16.90060561	     17.40875971	     -9.77547329	      0.00000000	    -15.49556843	     11.21617170	      4.89514450	     14.09712792	     25.45590619	     -1.51442005	      0.00000000	     -1.37639527	      0.69420514	      1.67835820	      6.85421007	    -20.47246959	     26.26669324	     91.31819223	    119.74817918	      5.62072566	    -14.07311706	     16.20845728	    100.29389381	    119.74817918
      9.18333330	     10.57914039	     -6.27189109	    -40.55796648	      4.27254905	      1.01285208	      1.33744649	    -18.52330463	    -10.36188141	    -10.79753713	     15.51486585	     16.63050437	     -9.98617980	      0.00000000	    -16.46522380	     11.45046516	      5.04381772	     12.51043816	     25.07886250	     -1.28935382	      0.00000000	     -0.37414458	      0.61491296	      1.07261935	      6.36549402	    -20.23511310	     25.72461863	     92.46436428	    119.74817918	      4.18068103	    -13.96356260	     15.97390576	    100.60076662	    119.74817918
      9.20000000	     10.36394389	     -6.18115851	    -40.80358958	      4.27649430	      1.01266107	      1.34101220	    -19.23304204	    -10.19558210	    -10.22687330	     14.21495798	     16.06969631	     -9.24285397	      0.00000000	    -17.24504848	     11.41719854	      5.07035286	     11.19606606	     24.83257949	     -1.24939129	      0.00000000	      0.64681359	      0.53611323	      0.59817442	      5.84336306	    -19.57559024	     25.30816216	     93.65535536	    119.74817918	      2.54675491	    -14.28756398	     15.75647096	    101.00365767	    119.74817918
      9.21666670	     10.31567612	     -6.14134963	    -41.09707630	      4.28020391	      1.01262054	      1.34395376	    -20.14245959	    -10.25854151	    -10.30822510	     12.76145136	     14.99228007	     -8.60242685	      0.00000000	    -18.17119265	     11.51091387	      5.08573501	      9.86248645	     24.56890059	     -1.15617119	      0.00000000	      1.33812035	      0.47686441	      0.41400447	      5.47664906	    -19.30566858	     24.94770254	     95.08983476	    119.74817918	      0.93455865	    -14.69614717	     15.81168094	    101.37214368	    119.74817918
      9.23333330	     10.34344260	     -6.67784172	    -41.40029529	      4.28275342	      1.01329765	      1.34729276	    -21.47115460	     -9.57408729	     -8.55518693	     11.23445247	     15.17081438	     -6.99544316	      0.00000000	    -19.52524767	     11.16662223	      5.13898566	      8.54614340	     24.17707823	     -1.29314406	      0.00000000	      1.33687015	      0.68239861	      0.29925806	      5.28588305	    -18.61145080	     23.96700004	     95.92852324	    119.74817918	     -0.63775668	    -14.82635305	     15.36375855	    101.37520360	    119.74817918
      9.25000000	     10.07338962	     -6.77578651	    -41.78485436	      4.28533998	      1.01291627	      1.35167408	    -22.05739317	     -9.17102197	     -6.85337276	     10.18084535	     15.55406431	     -5.68823900	      0.00000000	    -19.96909607	     10.95789908	      5.13288934	      8.02474546	     24.39369253	     -1.46037250	      0.00000000	      2.06196220	      0.63185785	      0.16016656	      4.98201763	    -17.54126001	     23.27483337	     96.57636005	    119.74817918	     -2.50842381	    -15.29024250	     15.21151659	    101.45652568	    119.74817918
      9.26666670	      9.73791500	     -6.94323533	    -42.47212240	      4.28719534	      1.01229845	      1.35605546	    -22.60140785	     -8.86649106	     -5.83763158	      9.02670794	     15.85446052	     -4.46943179	      0.00000000	    -20.34084807	     10.74099350	      4.88024651	      7.52224316	     24.56101093	     -1.70105226	      0.00000000	      2.65070410	      0.71021866	      0.37804170	      4.87051420	    -16.71326000	     22.81646617	     97.13338067	    119.74817918	     -4.07804224	    -15.60535116	     15.03367298	    101.53143362	    119.74817918
